<svg width="263" height="242" viewBox="0 0 263 242" fill="none" xmlns="http://www.w3.org/2000/svg">
<path d="M222.259 161.685C247.89 161.685 262.73 180.093 262.73 201.758C262.73 223.423 248.978 241.413 223.982 241.413C196.322 241.413 183.115 218.665 183.115 201.562C183.115 184.459 196.322 161.685 222.259 161.685Z" fill="#37474F"/>
<path d="M218.318 161.685C242.68 161.685 256.794 180.093 256.794 201.758C256.794 223.423 243.719 241.413 219.959 241.413C193.668 241.413 181.112 218.665 181.112 201.562C181.112 184.459 193.668 161.685 218.318 161.685Z" fill="#263238"/>
<path d="M218.565 177.246C233.405 177.246 242.012 188.466 242.012 201.665C242.012 214.863 234.048 225.819 219.563 225.819C203.544 225.819 195.894 211.956 195.894 201.528C195.894 191.101 203.544 177.246 218.565 177.246Z" fill="#C7C7C7"/>
<path d="M36.5491 226.919C68.1574 226.919 78.6853 209.739 78.6853 189.046C78.6853 168.353 63.9941 150.747 35.2877 150.747C54.0268 150.747 64.8762 168.336 64.8762 189.046C64.8762 209.756 54.8183 226.919 36.5491 226.919Z" fill="#37474F"/>
<path d="M35.2879 150.772C54.0271 150.772 64.8765 168.37 64.8765 189.063C64.8765 209.756 54.8268 226.919 36.5493 226.919C16.3262 226.919 6.67224 205.177 6.67224 188.833C6.67224 172.488 16.3262 150.772 35.2879 150.772Z" fill="#263238"/>
<path d="M20.4896 188.858C20.4896 204.657 16.6066 225.521 34.612 226.876H35.2468H35.7827H36.5494C54.8186 226.876 64.8765 209.696 64.8765 189.003C64.8765 168.31 54.0271 150.704 35.288 150.704H34.2822H33.8205C33.532 150.704 33.2352 150.747 32.9467 150.772C16.6891 152.648 20.4896 173.204 20.4896 188.858Z" fill="#263238"/>
<path d="M33.9525 165.65C44.365 165.65 50.3997 176.376 50.3997 188.986C50.3997 201.596 44.8101 212.066 34.6533 212.066C23.4081 212.066 18.0411 198.816 18.0411 188.858C18.0411 178.899 23.4164 165.65 33.9525 165.65Z" fill="#C7C7C7"/>
<path d="M180.798 71.1811H170.716L163.807 60.694H175.621L180.798 71.1811Z" fill="#DA5C5C"/>
<path d="M163.807 60.694L167.855 66.8328L170.716 71.1811H180.798L178.07 65.6561L175.613 60.694H163.807Z" fill="#DA5C5C"/>
<path opacity="0.1" d="M163.807 60.694L167.855 66.8328L178.07 65.6561L175.613 60.694H163.807Z" fill="black"/>
<path d="M205.3 149.442L195.481 151.778L186.479 143.149L197.988 140.421L205.3 149.442Z" fill="#DA5C5C"/>
<path d="M186.479 143.149L191.747 148.197L195.473 151.778L205.309 149.442L201.45 144.693L197.988 140.421L186.479 143.149Z" fill="#DA5C5C"/>
<path opacity="0.1" d="M186.479 143.149L191.747 148.197L201.45 144.693L197.988 140.421L186.479 143.149Z" fill="black"/>
<path d="M59.9874 180.401L62.8069 186.855C62.8069 186.855 139.041 192.883 146.28 191.766C152.336 184.39 157.438 176.23 161.457 167.492H126.972C121.838 167.55 116.76 166.383 112.132 164.082L107.68 163.314L99.6586 167.458L90.895 180.366L66.5333 179.906L59.9874 180.401Z" fill="#455A64"/>
<path d="M99.6426 167.492C99.6426 167.492 119.165 179.906 157.22 175.694C158.63 173.205 160.065 170.468 161.458 167.492H126.972C121.838 167.55 116.76 166.383 112.133 164.082L107.681 163.314L99.6426 167.492Z" fill="#37474F"/>
<path d="M260.504 166.801L250.957 171.985C250.957 171.985 223.33 166.801 205.614 170.723C187.897 174.646 183.115 184.433 183.115 184.433H174.17C174.17 184.433 181.854 156.204 194.896 145.921C207.939 135.639 228.879 137.975 240.462 144.429C252.045 150.883 260.504 166.801 260.504 166.801Z" fill="#DA5C5C"/>
<path opacity="0.1" d="M249.959 170.033C248.114 168.036 246.112 166.199 243.974 164.542C241.856 162.841 239.618 161.305 237.28 159.947C232.741 157.346 227.767 155.66 222.621 154.976C212.547 153.697 202.011 156.732 194.591 164.738C190.42 169.274 187.452 174.833 184.632 180.461C184.632 180.546 184.706 180.614 184.748 180.529C187.136 175.589 190.153 171.001 193.717 166.887C197.152 163.009 201.426 160.028 206.191 158.19C215.696 154.584 226.018 155.965 235.12 160.322C237.73 161.553 240.251 162.978 242.663 164.585C245.136 166.29 247.478 168.192 249.794 170.127C249.81 170.142 249.829 170.151 249.85 170.154C249.87 170.157 249.892 170.152 249.91 170.142C249.928 170.132 249.943 170.115 249.952 170.096C249.961 170.076 249.963 170.054 249.959 170.033Z" fill="black"/>
<path d="M118.134 113.113V109.626L31.9079 112.499V120.343C31.9079 120.343 6.92786 148.863 4.45459 178.508L90.92 180.401L99.6836 167.492L107.705 163.349L112.157 164.116V162.121L108.744 157.969L108.596 145.674C107.294 143.794 106.368 141.665 105.871 139.41C105.374 137.156 105.317 134.821 105.702 132.544C106.625 125.979 118.134 113.113 118.134 113.113Z" fill="#DA5C5C"/>
<path d="M82.8245 176.248C81.9259 177.953 68.8093 180.4 43.9447 181.091C21.5617 181.713 4.8424 181.202 3.50684 179.709C2.17127 178.217 5.51018 151.829 20.6631 137.539C35.816 123.25 57.3086 121.195 71.4557 129.721C83.8963 137.198 93.1793 156.203 82.8245 176.248Z" fill="#DA5C5C"/>
<path opacity="0.1" d="M87.0452 151.267C85.7159 145.018 82.6498 139.308 78.2239 134.837C73.7849 130.238 68.2417 126.945 62.1642 125.296C55.3882 123.547 48.2915 123.626 41.5536 125.527C38.1816 126.441 34.9208 127.748 31.8337 129.423C28.5755 131.236 25.5038 133.387 22.6661 135.843C21.9076 136.491 21.1409 137.139 20.3907 137.804C20.3247 137.855 20.3907 137.949 20.4896 137.898C23.3434 135.303 26.4328 132.998 29.7149 131.017C32.7098 129.248 35.8872 127.833 39.1875 126.797C45.7306 124.681 52.6793 124.276 59.4106 125.62C65.4943 126.885 71.1328 129.831 75.7259 134.146C80.1518 138.267 83.4069 143.559 85.1408 149.451C87.2019 156.63 86.5259 164.533 84.473 171.619C84.201 172.574 83.9124 173.511 83.5992 174.449C83.5992 174.552 83.7146 174.586 83.7475 174.492C86.5258 167.134 88.5951 159.205 87.0452 151.267Z" fill="black"/>
<path opacity="0.1" d="M99.6421 167.492L107.664 163.348L112.116 164.116V162.121L108.703 157.977L108.554 145.691C107.25 143.812 106.323 141.683 105.826 139.428C105.329 137.173 105.273 134.838 105.66 132.561C106.625 125.987 118.134 113.121 118.134 113.121H114.795C114.795 113.121 96.6577 122.798 92.5356 130.787C88.4135 138.776 87.1686 157.508 99.6421 167.492Z" fill="black"/>
<path d="M27.118 183.811C12.097 183.811 4.14959 183.334 0.118164 181.68L1.98959 176.812C6.70529 178.747 21.4707 178.713 45.2306 178.432C62.7825 178.218 75.7342 176.505 83.8135 173.316L85.619 178.21C76.8801 181.62 63.6894 183.428 45.2883 183.649C38.3054 183.752 32.2871 183.811 27.118 183.811Z" fill="#DBDBDB"/>
<path d="M145.134 65.5358C144.986 65.8854 125.076 69.6795 125.076 69.6795C125.076 69.6795 121.778 67.3775 123.815 64.4615L143.782 60.0024C144.552 60.6528 145.098 61.5418 145.342 62.5382C145.585 63.5346 145.512 64.5855 145.134 65.5358Z" fill="#263238"/>
<path d="M186.924 38.9181V63.3454C186.924 63.3454 174.17 62.1944 170.774 62.0751C167.377 61.9557 152.282 63.9764 152.282 63.9764L151.111 58.5026C151.111 58.5026 162.744 54.2993 167.69 51.0167C172.637 47.7341 178.333 41.4589 181.392 40.0692C183.126 39.2497 185.019 38.8558 186.924 38.9181Z" fill="#DA5C5C"/>
<path d="M152.331 57.812C153.09 58.6184 153.662 59.5919 154.004 60.6595C154.347 61.7271 154.452 62.8611 154.31 63.9764C154.31 63.9764 144.804 65.7754 144.689 65.7754C144.765 64.6139 144.488 63.457 143.896 62.4664C143.305 61.4758 142.429 60.701 141.391 60.2505L152.331 57.812Z" fill="#DBDBDB"/>
<path d="M187.048 63.3455C190.499 63.3455 193.297 57.8792 193.297 51.1362C193.297 44.3931 190.499 38.9268 187.048 38.9268C183.596 38.9268 180.799 44.3931 180.799 51.1362C180.799 57.8792 183.596 63.3455 187.048 63.3455Z" fill="#DBDBDB"/>
<path d="M182.085 51.1363C182.085 57.1045 184.484 62.0241 187.435 62.0241C190.387 62.0241 192.786 57.1472 192.786 51.1363C192.786 45.1254 190.387 40.2399 187.435 40.2399C184.484 40.2399 182.085 45.1168 182.085 51.1363Z" fill="white"/>
<path d="M118.134 109.625C118.134 109.625 118.291 94.7303 117.73 94.1505C117.17 93.5707 31.3554 93.8776 28.7915 94.1505C26.2275 94.4233 26.4501 111.774 26.6727 112.584C26.8953 113.394 115.908 109.821 118.134 109.625Z" fill="#37474F"/>
<path d="M125.752 94.304C125.496 94.0738 114.614 94.0226 114.02 94.0226C113.427 94.0226 113.641 109.898 114.02 109.873C114.399 109.847 125.826 109.779 126.197 109.429C126.568 109.08 126.312 94.807 125.752 94.304Z" fill="#455A64"/>
<path d="M65.6265 93.4512C65.3386 93.6916 65.1428 94.0301 65.0741 94.4061C64.9884 94.7764 64.9278 95.1525 64.8928 95.5315C64.8021 96.2904 64.7774 97.0577 64.7444 97.8251C64.7444 99.3598 64.7444 100.903 64.7444 102.446C64.7444 103.989 64.7444 105.533 64.8351 107.067C64.8617 107.826 64.9472 108.582 65.0906 109.327C65.1534 109.695 65.2702 110.052 65.4369 110.384C65.5139 110.553 65.6289 110.701 65.7723 110.815C65.9157 110.93 66.0833 111.007 66.2613 111.041C66.0641 111.048 65.8682 111.003 65.6922 110.911C65.5163 110.818 65.366 110.681 65.2555 110.512C65.0189 110.189 64.8325 109.829 64.7032 109.446C64.4534 108.697 64.2794 107.922 64.1838 107.136C63.9946 105.58 63.9037 104.014 63.9117 102.446C63.8956 100.886 63.9699 99.3254 64.1343 97.7739C64.2127 96.9893 64.3449 96.2115 64.53 95.4463C64.628 95.0615 64.7548 94.6853 64.9093 94.3209C65.0296 93.9454 65.287 93.6333 65.6265 93.4512Z" fill="#455A64"/>
<path d="M21.4539 93.9966L103.888 93.9966V40.9983L21.4539 40.9983V93.9966Z" fill="#37474F"/>
<path d="M21.454 93.9966L81.0103 93.9966V40.9983L21.454 40.9983L21.454 93.9966Z" fill="#263238"/>
<path d="M123.988 0.363098H98.315L78.2156 40.9985H103.888L123.988 0.363098Z" fill="#37474F"/>
<path d="M101.093 0.363098H98.315L78.2156 40.9985H80.9939L101.093 0.363098Z" fill="#263238"/>
<path d="M33.1941 40.9905H28.0909V94.0144H33.1941V40.9905Z" fill="#DA5C5C"/>
<path d="M70.6972 40.9905H65.594V94.0144H70.6972V40.9905Z" fill="#DA5C5C"/>
<path d="M35.6012 58.2214V52.1934C35.6012 52.0442 35.6585 51.901 35.7606 51.7955C35.8626 51.69 36.001 51.6307 36.1453 51.6307H39.3771C39.5109 51.6477 39.6341 51.7147 39.7234 51.8191C39.8127 51.9236 39.8621 52.0582 39.8621 52.1977C39.8621 52.3371 39.8127 52.4717 39.7234 52.5762C39.6341 52.6806 39.5109 52.7476 39.3771 52.7647H36.6977V54.6319H38.9978C39.1408 54.6361 39.2768 54.6968 39.378 54.8014C39.4791 54.906 39.5378 55.0467 39.5419 55.1946C39.543 55.2696 39.5298 55.3441 39.5031 55.4139C39.4763 55.4836 39.4365 55.5472 39.386 55.601C39.3355 55.6549 39.2752 55.6979 39.2086 55.7276C39.142 55.7574 39.0704 55.7732 38.9978 55.7744H36.6977V58.2214C36.6955 58.3714 36.6364 58.5145 36.533 58.6198C36.4297 58.7251 36.2904 58.7841 36.1453 58.7841C36.0739 58.7841 36.0031 58.7695 35.9371 58.7412C35.8711 58.713 35.8111 58.6715 35.7606 58.6193C35.71 58.567 35.67 58.505 35.6426 58.4367C35.6153 58.3684 35.6012 58.2953 35.6012 58.2214Z" fill="white"/>
<path d="M46.8463 52.5174C47.487 53.216 47.8442 54.1421 47.8442 55.105C47.8442 56.0679 47.487 56.9941 46.8463 57.6927C46.546 58.0336 46.1808 58.3065 45.7736 58.4943C45.3664 58.6821 44.926 58.7808 44.4802 58.7841C44.0257 58.7819 43.5764 58.684 43.1597 58.4964C42.743 58.3087 42.3676 58.0353 42.0564 57.6927C41.4301 56.9866 41.0826 56.0632 41.0826 55.105C41.0826 54.1468 41.4301 53.2235 42.0564 52.5174C42.3657 52.1724 42.7408 51.8973 43.1579 51.7095C43.575 51.5217 44.0252 51.4252 44.4802 51.426C44.9263 51.4277 45.3671 51.5257 45.7745 51.7136C46.1819 51.9015 46.5469 52.1753 46.8463 52.5174ZM46.7143 55.0752C46.7157 54.4131 46.4775 53.7744 46.0466 53.2847C45.8464 53.0561 45.6021 52.8733 45.3295 52.7482C45.0569 52.6232 44.7619 52.5586 44.4637 52.5586C44.1654 52.5586 43.8705 52.6232 43.5978 52.7482C43.3252 52.8733 43.081 53.0561 42.8808 53.2847C42.444 53.7713 42.2024 54.4113 42.2047 55.0752C42.2007 55.7344 42.4429 56.3697 42.8808 56.8486C43.0781 57.0821 43.3214 57.2693 43.5945 57.3975C43.8675 57.5257 44.1638 57.592 44.4637 57.592C44.7635 57.592 45.0599 57.5257 45.3329 57.3975C45.6059 57.2693 45.8492 57.0821 46.0466 56.8486C46.4736 56.3769 46.7122 55.7555 46.7143 55.1093V55.0752Z" fill="white"/>
<path d="M55.1564 52.5174C55.7972 53.216 56.1544 54.1421 56.1544 55.105C56.1544 56.0679 55.7972 56.9941 55.1564 57.6927C54.8562 58.0336 54.491 58.3065 54.0838 58.4943C53.6766 58.6821 53.2362 58.7808 52.7903 58.7841C52.3359 58.7819 51.8866 58.684 51.4698 58.4964C51.0531 58.3087 50.6777 58.0353 50.3665 57.6927C49.7403 56.9866 49.3928 56.0632 49.3928 55.105C49.3928 54.1468 49.7403 53.2235 50.3665 52.5174C50.6759 52.1724 51.0509 51.8973 51.4681 51.7095C51.8852 51.5217 52.3354 51.4252 52.7903 51.426C53.2364 51.4277 53.6773 51.5257 54.0847 51.7136C54.4921 51.9015 54.8571 52.1753 55.1564 52.5174ZM55.0245 55.0752C55.0259 54.4131 54.7877 53.7744 54.3567 53.2847C54.1566 53.0561 53.9123 52.8733 53.6397 52.7482C53.367 52.6232 53.0721 52.5586 52.7739 52.5586C52.4756 52.5586 52.1807 52.6232 51.908 52.7482C51.6354 52.8733 51.3911 53.0561 51.191 53.2847C50.7542 53.7713 50.5126 54.4113 50.5149 55.0752C50.5109 55.7344 50.7531 56.3697 51.191 56.8486C51.3883 57.0821 51.6316 57.2693 51.9046 57.3975C52.1776 57.5257 52.474 57.592 52.7739 57.592C53.0737 57.592 53.3701 57.5257 53.6431 57.3975C53.9161 57.2693 54.1594 57.0821 54.3567 56.8486C54.7838 56.3769 55.0224 55.7555 55.0245 55.1093V55.0752Z" fill="white"/>
<path d="M57.8111 58.2214V52.1935C57.81 52.1193 57.8233 52.0456 57.8502 51.9768C57.8772 51.908 57.9172 51.8455 57.968 51.793C58.0187 51.7405 58.0792 51.6991 58.1457 51.6712C58.2122 51.6434 58.2835 51.6296 58.3552 51.6307H59.5176C60.4057 51.6756 61.243 52.072 61.8562 52.7379C62.4693 53.4037 62.8113 54.288 62.8113 55.2075C62.8113 56.1269 62.4693 57.0112 61.8562 57.677C61.243 58.3429 60.4057 58.7393 59.5176 58.7841H58.3552C58.2109 58.7841 58.0725 58.7249 57.9705 58.6193C57.8684 58.5138 57.8111 58.3707 57.8111 58.2214ZM58.9076 57.6502H59.5176C60.12 57.6134 60.6859 57.34 61.0998 56.8859C61.5136 56.4318 61.7441 55.8314 61.7441 55.2075C61.7441 54.5835 61.5136 53.983 61.0998 53.529C60.6859 53.0749 60.12 52.8015 59.5176 52.7647H58.9076V57.6502Z" fill="white"/>
<path d="M47.8522 63.295H46.7475V67.1317C46.7556 67.1887 46.7517 67.2468 46.7362 67.302C46.7206 67.3573 46.6938 67.4084 46.6574 67.452C46.621 67.4955 46.576 67.5305 46.5254 67.5544C46.4748 67.5784 46.4198 67.5908 46.3642 67.5908C46.3085 67.5908 46.2535 67.5784 46.2029 67.5544C46.1523 67.5305 46.1073 67.4955 46.0709 67.452C46.0345 67.4084 46.0077 67.3573 45.9921 67.302C45.9766 67.2468 45.9727 67.1887 45.9808 67.1317V63.295H44.8513C44.7492 63.2928 44.6519 63.2499 44.5797 63.1752C44.5075 63.1005 44.466 62.9999 44.4639 62.8943C44.4639 62.788 44.5047 62.6861 44.5774 62.6109C44.65 62.5358 44.7486 62.4935 44.8513 62.4935H47.8193C47.9206 62.4958 48.017 62.539 48.0879 62.6139C48.1588 62.6888 48.1985 62.7894 48.1985 62.8943C48.199 62.9935 48.1639 63.0895 48.1 63.1636C48.036 63.2376 47.9477 63.2844 47.8522 63.295Z" fill="white"/>
<path d="M52.8319 63.1238C53.285 63.6118 53.5364 64.2632 53.5326 64.9398C53.5408 65.6173 53.2888 66.2704 52.8319 66.7559C52.6234 66.9955 52.3693 67.1881 52.0856 67.3216C51.8019 67.4551 51.4947 67.5266 51.183 67.5318C50.8625 67.5292 50.5459 67.4591 50.2525 67.3257C49.9591 67.1923 49.695 66.9984 49.4765 66.7559C49.0256 66.2677 48.7796 65.6149 48.7922 64.9398C48.7866 64.2661 49.0316 63.6159 49.4765 63.1238C49.6945 62.8812 49.9586 62.6879 50.2523 62.5558C50.5459 62.4238 50.8628 62.3559 51.183 62.3564C51.4945 62.3579 51.8022 62.427 52.0862 62.5592C52.3702 62.6913 52.6242 62.8837 52.8319 63.1238ZM52.7412 64.9398C52.7437 64.4756 52.5757 64.0277 52.2713 63.6865C52.1325 63.5276 51.9635 63.4002 51.7748 63.3121C51.5861 63.2241 51.3818 63.1774 51.1748 63.1749C50.9625 63.1742 50.7523 63.2193 50.5578 63.3074C50.3634 63.3955 50.1888 63.5246 50.0453 63.6865C49.7429 64.029 49.5753 64.476 49.5753 64.9398C49.5753 65.4036 49.7429 65.8507 50.0453 66.1932C50.1888 66.355 50.3634 66.4842 50.5578 66.5723C50.7523 66.6604 50.9625 66.7055 51.1748 66.7047C51.3818 66.7023 51.5861 66.6556 51.7748 66.5676C51.9635 66.4795 52.1325 66.3521 52.2713 66.1932C52.5811 65.8486 52.7496 65.3932 52.7412 64.9228V64.9398Z" fill="white"/>
<path d="M35.6177 76.6635C36.0116 74.7667 37.0115 73.0624 38.4562 71.825C39.9009 70.5877 41.7064 69.8893 43.5816 69.8426C45.0354 69.8065 46.4487 70.3394 47.5389 71.3346C47.6333 71.4369 47.7066 71.5581 47.7542 71.6907C47.8018 71.8232 47.8228 71.9645 47.8158 72.1057C47.8089 72.247 47.7742 72.3853 47.7138 72.5122C47.6534 72.6391 47.5686 72.7519 47.4647 72.8438C47.2882 73.0688 47.0346 73.2148 46.7566 73.2514C46.4786 73.2879 46.1978 73.2121 45.9725 73.0399C45.2046 72.352 44.2182 71.9815 43.2024 71.9997C41.8947 72.0184 40.6346 72.5101 39.6409 73.3894C38.6441 74.2276 37.9641 75.4017 37.72 76.7061C37.6092 77.2835 37.6259 77.8792 37.7686 78.449C37.9113 79.0189 38.1765 79.548 38.5444 79.9972C38.9279 80.452 39.404 80.8132 39.9385 81.055C40.4731 81.2968 41.0528 81.4131 41.636 81.3955C42.568 81.3817 43.4814 81.1236 44.2906 80.6452L44.7441 78.0362H42.1059C41.977 78.0408 41.8489 78.014 41.7318 77.9581C41.6146 77.9022 41.5119 77.8186 41.4317 77.7141C41.3515 77.6096 41.2961 77.4871 41.27 77.3565C41.244 77.2258 41.2479 77.0907 41.2815 76.9619C41.3345 76.6628 41.4857 76.3918 41.7095 76.1945C41.9332 75.9972 42.2159 75.8858 42.5099 75.8791H46.1703C46.3042 75.8654 46.4392 75.8857 46.5637 75.9384C46.6882 75.9911 46.7983 76.0744 46.8845 76.1812C46.9707 76.288 47.0303 76.4149 47.0581 76.551C47.0859 76.6871 47.0812 76.8281 47.0442 76.9619L46.3187 81.2249C46.296 81.3239 46.2657 81.4208 46.228 81.5148L46.1703 81.6342C46.0719 81.8156 45.9335 81.9704 45.7664 82.0861C44.459 83.0305 42.9089 83.55 41.3145 83.5781C40.4639 83.6327 39.6127 83.4818 38.8282 83.1373C38.0438 82.7929 37.3477 82.2642 36.795 81.5934C36.2422 80.9225 35.8481 80.1277 35.6438 79.2721C35.4395 78.4164 35.4305 77.5233 35.6177 76.6635Z" fill="white"/>
<path d="M51.4469 81.5234C50.9601 80.8393 50.6188 80.0564 50.4455 79.2261C50.2721 78.3959 50.2706 77.5371 50.4411 76.7062C50.7842 74.8377 51.718 73.1401 53.0957 71.8804C54.4095 70.6106 56.1292 69.8853 57.9269 69.8427C58.7197 69.8284 59.5049 70.005 60.2203 70.3587C60.9357 70.7124 61.5618 71.2334 62.049 71.8804C62.5257 72.5712 62.8591 73.3566 63.0279 74.1871C63.1967 75.0176 63.1975 75.8754 63.03 76.7062C62.7049 78.5751 61.7745 80.274 60.3919 81.5234C59.0781 82.7932 57.3585 83.5186 55.5608 83.5612C54.7684 83.5802 53.9829 83.4056 53.268 83.0515C52.5532 82.6974 51.9292 82.1739 51.4469 81.5234ZM52.5434 76.7062C52.4272 77.2833 52.4281 77.879 52.5459 78.4558C52.6636 79.0325 52.8958 79.5777 53.2277 80.057C53.5506 80.4847 53.9652 80.829 54.4387 81.0628C54.9123 81.2966 55.4318 81.4134 55.9565 81.4041C57.1389 81.363 58.2679 80.8851 59.1388 80.057C60.0868 79.1784 60.7274 78.0004 60.9607 76.7062C61.0796 76.132 61.0801 75.5383 60.9622 74.9639C60.8443 74.3895 60.6107 73.8472 60.2765 73.3725C59.9553 72.9422 59.5412 72.5955 59.0674 72.3601C58.5936 72.1248 58.0732 72.0072 57.5476 72.0168C56.3621 72.0502 55.2296 72.5326 54.3653 73.3725C53.4296 74.2503 52.7982 75.4215 52.5681 76.7062H52.5434Z" fill="white"/>
<path d="M41.4463 64.7695H35.6012V65.5795H41.4463V64.7695Z" fill="white"/>
<path d="M62.9719 64.7695H57.1267V65.5795H62.9719V64.7695Z" fill="white"/>
<path d="M189.059 71.1815C191.137 74.3277 199.455 117.112 201.088 119.26C202.72 121.409 205.844 121.562 205.844 121.562L211.385 135.69C211.385 135.69 197.724 140.149 190.139 146.595C180.296 154.934 171.235 182.584 171.235 182.584C169.751 183.658 151.334 191.493 146.28 191.8C146.28 191.8 169.768 165.131 171.68 128.221C172.422 113.914 163.923 93.7842 163.362 83.8087C162.768 73.134 165.885 71.2156 171.384 71.2156L189.059 71.1815Z" fill="#DA5C5C"/>
<path d="M145.151 194.869L141.474 191.271C162.084 168.711 169.685 133.166 169.084 123.463C168.77 118.484 167.229 112.925 165.588 107.042C163.84 100.758 161.862 93.6385 161.021 85.9054C160.196 78.7264 161.021 74.0882 163.387 71.3172C165.753 68.5462 169.001 68.5547 171.161 68.5547H190.774V73.7983H171.153C169.265 73.7983 167.979 73.8665 167.163 74.8129C166.347 75.7593 165.283 78.2233 166.058 85.3256C166.882 92.6154 168.688 99.2146 170.46 105.592C172.175 111.757 173.799 117.588 174.137 123.122C174.78 133.456 166.866 171.166 145.151 194.869Z" fill="#DBDBDB"/>
<path d="M201.187 130.966C202.341 135.357 205.976 138.162 209.315 137.224C212.654 136.286 214.41 131.963 213.248 127.573C212.085 123.182 208.458 120.368 205.119 121.306C201.78 122.244 200.024 126.566 201.187 130.966Z" fill="#DBDBDB"/>
<path d="M202.423 130.616C203.462 134.538 206.603 137.062 209.456 136.26C212.308 135.459 213.776 131.631 212.753 127.734C211.731 123.838 208.574 121.289 205.729 122.09C202.885 122.892 201.393 126.694 202.423 130.616Z" fill="white"/>
<path opacity="0.1" d="M186.603 130.249C185.687 125.833 184.698 121.425 183.841 116.991C182.983 112.558 182.192 108.116 181.524 103.656C180.873 99.5043 180.172 95.3094 179.916 91.106C179.661 86.7151 179.916 82.2815 181.978 78.3169C181.982 78.309 181.985 78.3004 181.986 78.2915C181.987 78.2825 181.986 78.2734 181.984 78.2647C181.982 78.256 181.978 78.2478 181.972 78.2407C181.967 78.2336 181.96 78.2276 181.953 78.2231C181.945 78.2186 181.937 78.2157 181.928 78.2146C181.92 78.2135 181.911 78.2141 181.902 78.2165C181.894 78.2188 181.886 78.2229 181.879 78.2284C181.872 78.234 181.866 78.2408 181.862 78.2487C179.743 81.446 179.051 85.2827 178.935 89.0939C178.946 93.2985 179.304 97.4945 180.007 101.636C181.21 110.723 182.861 119.742 184.954 128.655C186.149 133.694 187.691 138.648 189.34 143.542C189.345 143.557 189.356 143.57 189.371 143.578C189.386 143.585 189.403 143.586 189.418 143.58C189.433 143.574 189.446 143.563 189.453 143.547C189.46 143.532 189.461 143.515 189.455 143.499C188.471 139.1 187.52 134.683 186.603 130.249Z" fill="black"/>
</svg>
